<!-- icon666.com - MILLIONS vector ICONS FREE --><svg viewBox="0 0 512 512" xmlns="http://www.w3.org/2000/svg"><g id="_x30_4_Cam"><g id="Cam_1_"><g id="Cam"><path d="m478.791 476.276c-1.997-7.262-4.963-14.12-8.727-20.448l-11.373-15c-15.23-15.982-36.716-25.948-60.536-25.948-25.656 0-46.814-19.256-49.809-44.104l-184.578-1.032c-.904 9.074-4.237 17.429-9.323 24.426l4.797 66.054-124.03 9.776c-.745 2.056-1.417 4.148-2.002 6.276-3.073 11.174 5.269 22.224 16.858 22.224h411.865c11.588 0 19.93-11.05 16.858-22.224z" fill="#b5b5b5" style="fill: rgb(67, 37, 152);"></path><path d="m392.951 440.828c-3.326-6.428-10.024-10.828-17.76-10.828h-88.971c-46.619 0-92.066-12.522-131.775-35.831-9.12 12.546-23.902 20.71-40.6 20.71-23.82 0-45.306 9.967-60.536 25.948l-11.373 15c-2.661 4.474-4.925 9.21-6.724 14.172h339.979c9.018 0 16.636-5.97 19.132-14.172z" fill="#bcbec0" style="fill: rgb(117, 186, 255);"></path><path d="m357.027 42.571-257.054 269.358c34.324 49.299 91.402 81.571 156.027 81.571 104.934 0 190-85.066 190-190 0-67.806-35.526-127.306-88.973-160.929z" fill="#647cef" style="fill: rgb(72, 101, 244);"></path><path d="m391 151c0-40.31-12.563-77.679-33.973-108.429-29.266-18.411-63.899-29.071-101.027-29.071-104.934 0-190 85.066-190 190 0 40.31 12.563 77.679 33.973 108.429 29.266 18.411 63.899 29.071 101.027 29.071 104.934 0 190-85.066 190-190z" fill="#8396f2"></path><path d="m117.818 211c-4.143 0-7.5-3.358-7.5-7.5 0-80.329 65.353-145.682 145.682-145.682 4.143 0 7.5 3.358 7.5 7.5s-3.357 7.5-7.5 7.5c-72.059 0-130.682 58.624-130.682 130.682 0 4.142-3.357 7.5-7.5 7.5z" fill="#8396f2"></path><path d="m277.025 118.549-94.549 132.402c15.584 24.098 42.69 40.049 73.524 40.049 48.325 0 87.5-39.175 87.5-87.5 0-41.076-28.306-75.536-66.475-84.951z" fill="#f8d892"></path><path d="m230.342 249.299 60.637-84.938c-.31-16.869-5.391-32.57-13.955-45.812-6.735-1.661-13.775-2.549-21.024-2.549-48.325 0-87.5 39.175-87.5 87.5 0 17.491 5.135 33.781 13.975 47.451 6.736 1.661 13.776 2.549 21.025 2.549 9.365 0 18.383-1.477 26.842-4.201z" fill="#fc9d1d"></path><path d="m230.342 249.299c7.588 4.261 16.336 6.701 25.658 6.701 28.995 0 52.5-23.505 52.5-52.5 0-15.556-6.771-29.526-17.521-39.139.01.546.021 1.091.021 1.639-2.433 14.936-45.083 70.656-60.658 83.299z" fill="#bbecff"></path><path d="m203.5 203.5c0 19.673 10.828 36.808 26.842 45.799 35.192-11.331 60.658-44.339 60.658-83.299 0-.548-.011-1.094-.021-1.639-9.286-8.305-21.54-13.361-34.979-13.361-28.995 0-52.5 23.505-52.5 52.5z" fill="#54cffe"></path></g><g id="Cam_2_"><path d="m256 298.5c-52.383 0-95-42.617-95-95s42.617-95 95-95 95 42.617 95 95-42.617 95-95 95zm0-175c-44.112 0-80 35.888-80 80s35.888 80 80 80 80-35.888 80-80-35.888-80-80-80z" fill="#000000"></path><path d="m117.818 211c-4.143 0-7.5-3.358-7.5-7.5 0-80.329 65.353-145.682 145.682-145.682 4.143 0 7.5 3.358 7.5 7.5s-3.357 7.5-7.5 7.5c-72.059 0-130.682 58.624-130.682 130.682 0 4.142-3.357 7.5-7.5 7.5z" fill="#000000"></path><path d="m256 263.5c-33.084 0-60-26.916-60-60s26.916-60 60-60 60 26.916 60 60c0 8.016-1.557 15.802-4.627 23.141-1.599 3.821-5.988 5.624-9.813 4.024-3.821-1.599-5.623-5.992-4.024-9.813 2.299-5.496 3.465-11.334 3.465-17.352 0-24.813-20.187-45-45-45s-45 20.187-45 45 20.187 45 45 45c7.598 0 15.104-1.926 21.707-5.571 3.627-2 8.188-.685 10.19 2.942 2.001 3.626.685 8.188-2.942 10.19-8.817 4.867-18.83 7.439-28.956 7.439z" fill="#000000"></path><path d="m486.021 474.287c-10.833-39.394-46.965-66.908-87.866-66.908-20.331 0-37.671-14.322-41.759-33.866 58.078-34.426 97.104-97.743 97.104-170.013 0-108.902-88.598-197.5-197.5-197.5-36.79 0-72.69 10.187-103.821 29.458-3.521 2.18-4.609 6.803-2.429 10.325 2.181 3.523 6.803 4.609 10.325 2.429 28.756-17.802 61.927-27.212 95.925-27.212 100.631 0 182.5 81.869 182.5 182.5s-81.869 182.5-182.5 182.5-182.5-81.869-182.5-182.5c0-51.214 21.721-100.387 59.594-134.91 3.061-2.79 3.28-7.534.49-10.595-2.793-3.061-7.535-3.281-10.596-.49-40.983 37.359-64.488 90.572-64.488 145.995 0 72.271 39.027 135.588 97.105 170.014-4.067 19.594-21.279 33.865-41.76 33.865-40.901 0-77.033 27.514-87.866 66.908-2.098 7.626-.556 15.602 4.229 21.88 4.762 6.249 12.001 9.833 19.859 9.833h411.865c7.858 0 15.098-3.584 19.859-9.833 4.786-6.278 6.328-14.253 4.23-21.88zm-16.159 12.788c-1.901 2.494-4.791 3.925-7.93 3.925h-411.865c-3.139 0-6.028-1.431-7.93-3.925-1.924-2.524-2.542-5.736-1.696-8.811 2.243-8.156 5.787-15.699 10.366-22.437h299.193c4.143 0 7.5-3.358 7.5-7.5s-3.357-7.5-7.5-7.5h-285.771c13.49-11.582 30.954-18.448 49.615-18.448 26.162 0 48.38-17.235 55.382-41.494 26.208 12.872 55.659 20.115 86.774 20.115 31.123 0 60.581-7.247 86.793-20.125 7.043 24.205 29.395 41.504 55.362 41.504 18.662 0 36.125 6.866 49.615 18.448h-62.77c-4.143 0-7.5 3.358-7.5 7.5s3.357 7.5 7.5 7.5h76.193c4.579 6.738 8.123 14.281 10.366 22.437.845 3.075.227 6.287-1.697 8.811z" fill="#000000"></path></g></g></g></svg>