<!-- icon666.com - MILLIONS vector ICONS FREE --><svg viewBox="0 0 512 512" xmlns="http://www.w3.org/2000/svg"><path d="m453.332031 0h-394.664062c-32.363281 0-58.667969 26.304688-58.667969 58.667969v394.664062c0 32.363281 26.304688 58.667969 58.667969 58.667969h394.664062c32.363281 0 58.667969-26.304688 58.667969-58.667969v-394.664062c0-32.363281-26.304688-58.667969-58.667969-58.667969zm0 0" fill="#607d8b" style="fill: rgb(98, 107, 223);"></path><g fill="#fafafa"><path d="m170.667969 256c0 29.457031-23.878907 53.332031-53.335938 53.332031-29.453125 0-53.332031-23.875-53.332031-53.332031s23.878906-53.332031 53.332031-53.332031c29.457031 0 53.335938 23.875 53.335938 53.332031zm0 0" fill="#fafafa"></path><path d="m309.332031 256c0 29.457031-23.875 53.332031-53.332031 53.332031s-53.332031-23.875-53.332031-53.332031 23.875-53.332031 53.332031-53.332031 53.332031 23.875 53.332031 53.332031zm0 0" fill="#fafafa"></path><path d="m448 256c0 29.457031-23.878906 53.332031-53.332031 53.332031-29.457031 0-53.335938-23.875-53.335938-53.332031s23.878907-53.332031 53.335938-53.332031c29.453125 0 53.332031 23.875 53.332031 53.332031zm0 0" fill="#fafafa"></path></g><path d="m117.332031 309.332031c-29.417969 0-53.332031-23.933593-53.332031-53.332031s23.914062-53.332031 53.332031-53.332031c29.421875 0 53.335938 23.933593 53.335938 53.332031s-23.914063 53.332031-53.335938 53.332031zm0-74.664062c-11.773437 0-21.332031 9.578125-21.332031 21.332031s9.558594 21.332031 21.332031 21.332031c11.777344 0 21.335938-9.578125 21.335938-21.332031s-9.558594-21.332031-21.335938-21.332031zm0 0" fill="#000000"></path><path d="m256 309.332031c-29.417969 0-53.332031-23.933593-53.332031-53.332031s23.914062-53.332031 53.332031-53.332031 53.332031 23.933593 53.332031 53.332031-23.914062 53.332031-53.332031 53.332031zm0-74.664062c-11.777344 0-21.332031 9.578125-21.332031 21.332031s9.554687 21.332031 21.332031 21.332031 21.332031-9.578125 21.332031-21.332031-9.554687-21.332031-21.332031-21.332031zm0 0" fill="#000000"></path><path d="m394.667969 309.332031c-29.421875 0-53.335938-23.933593-53.335938-53.332031s23.914063-53.332031 53.335938-53.332031c29.417969 0 53.332031 23.933593 53.332031 53.332031s-23.914062 53.332031-53.332031 53.332031zm0-74.664062c-11.777344 0-21.335938 9.578125-21.335938 21.332031s9.558594 21.332031 21.335938 21.332031c11.773437 0 21.332031-9.578125 21.332031-21.332031s-9.558594-21.332031-21.332031-21.332031zm0 0" fill="#000000"></path><path d="m453.332031 512h-394.664062c-32.363281 0-58.667969-26.304688-58.667969-58.667969v-394.664062c0-32.363281 26.304688-58.667969 58.667969-58.667969h394.664062c32.363281 0 58.667969 26.304688 58.667969 58.667969v394.664062c0 32.363281-26.304688 58.667969-58.667969 58.667969zm-394.664062-480c-14.699219 0-26.667969 11.96875-26.667969 26.667969v394.664062c0 14.699219 11.96875 26.667969 26.667969 26.667969h394.664062c14.699219 0 26.667969-11.96875 26.667969-26.667969v-394.664062c0-14.699219-11.96875-26.667969-26.667969-26.667969zm0 0" fill="#000000"></path></svg>