<!-- icon666.com - MILLIONS vector ICONS FREE --><svg fill="none" viewBox="0 0 24 24" xmlns="http://www.w3.org/2000/svg"><g fill="rgb(0,0,0)"><path d="m17.61 21.71h-11.21997c-1.09004 0-2.13544-.433-2.90621-1.2038s-1.20379-1.8162-1.20379-2.9062v-11.21998c0-1.09004.43302-2.13543 1.20379-2.9062.77077-.77078 1.81617-1.2038 2.90621-1.2038h11.21997c1.09 0 2.1354.43302 2.9062 1.2038.7708.77077 1.2038 1.81616 1.2038 2.9062v11.21998c0 1.09-.433 2.1354-1.2038 2.9062s-1.8162 1.2038-2.9062 1.2038zm-11.21997-17.93998c-.69222 0-1.35608.27499-1.84555.76446s-.76445 1.15333-.76445 1.84554v11.21998c0 .6922.27498 1.3561.76445 1.8456.48947.4894 1.15333.7644 1.84555.7644h11.21997c.6922 0 1.3561-.275 1.8455-.7644.4895-.4895.7645-1.1534.7645-1.8456v-11.21998c0-.69221-.275-1.35607-.7645-1.84554-.4894-.48947-1.1533-.76446-1.8455-.76446z" fill="rgb(0,0,0)" style="fill: rgb(181, 181, 181);"></path><path d="m7.86003 14.9c-.76913 0-1.50675-.3055-2.05061-.8494-.54386-.5438-.84939-1.2815-.84939-2.0506s.30553-1.5067.84939-2.05058c.54386-.54386 1.28148-.84939 2.05061-.84939.19891 0 .38968.07901.53033.21967.14065.14065.21967.33141.21967.53033 0 .19887-.07902.38967-.21967.53027-.14065.1407-.33142.2197-.53033.2197-.24294.0014-.48134.0659-.69177.1873s-.38564.2955-.50842.5051c-.12278.2097-.1889.4476-.19185.6906-.00296.2429.05735.4824.175.6949.11765.2126.28858.3909.49599.5174.20742.1265.44418.1968.68701.2041.24283.0072.48338-.0488.69799-.1627.21461-.1138.3959-.2816.52605-.4867h-.46c-.19891 0-.38968-.079-.53033-.2197-.14065-.1406-.21967-.3314-.21967-.5303s.07902-.3897.21967-.5303c.14065-.1407.33142-.2197.53033-.2197h1.40997c.1981.0026.3874.0824.5275.2225s.2199.3294.2225.5275c-.0026.7666-.3076 1.5012-.84872 2.0442-.54113.543-1.27467.8505-2.04125.8558z" fill="rgb(0,0,0)" style="fill: rgb(181, 181, 181);"></path><path d="m12.65 14.89c-.0989.0014-.197-.0171-.2886-.0543-.0916-.0373-.1748-.0924-.2447-.1624-.0699-.0699-.1251-.1531-.1623-.2447-.0373-.0916-.0557-.1897-.0544-.2886v-4.29997c0-.19891.079-.38968.2197-.53033.1406-.14065.3314-.21967.5303-.21967s.3897.07902.5303.21967c.1407.14065.2197.33142.2197.53033v4.29997c0 .1989-.079.3897-.2197.5303-.1406.1407-.3314.2197-.5303.2197z" fill="rgb(0,0,0)" style="fill: rgb(181, 181, 181);"></path><path d="m15.33 14.9c-.1981-.0026-.3874-.0824-.5275-.2225s-.2199-.3294-.2225-.5275v-4.29997c0-.19892.079-.38968.2197-.53033.1406-.14066.3314-.21967.5303-.21967s.3897.07901.5303.21967c.1407.14065.2197.33141.2197.53033v4.29997c0 .0985-.0194.196-.0571.287s-.0929.1737-.1626.2433c-.0696.0697-.1523.1249-.2433.1626s-.1885.0571-.287.0571z" fill="rgb(0,0,0)" style="fill: rgb(181, 181, 181);"></path><path d="m17.93 12.81h-2.6c-.1989 0-.3897-.079-.5303-.2197-.1407-.1406-.2197-.3314-.2197-.5303s.079-.3897.2197-.5303c.1406-.1407.3314-.2197.5303-.2197h2.6c.1989 0 .3897.079.5303.2197.1407.1406.2197.3314.2197.5303s-.079.3897-.2197.5303c-.1406.1407-.3314.2197-.5303.2197z" fill="rgb(0,0,0)" style="fill: rgb(181, 181, 181);"></path><path d="m17.93 10.6h-2.6c-.1989 0-.3897-.079-.5303-.2197-.1407-.1406-.2197-.3314-.2197-.53027 0-.19892.079-.38968.2197-.53033.1406-.14066.3314-.21967.5303-.21967h2.6c.1989 0 .3897.07901.5303.21967.1407.14065.2197.33141.2197.53033 0 .19887-.079.38967-.2197.53027-.1406.1407-.3314.2197-.5303.2197z" fill="rgb(0,0,0)" style="fill: rgb(181, 181, 181);"></path></g></svg>