<!-- icon666.com - MILLIONS vector ICONS FREE --><svg viewBox="0 -53 512 511" xmlns="http://www.w3.org/2000/svg"><path d="m256 341.832031c-64.703125 0-117.332031-52.628906-117.332031-117.332031s52.628906-117.332031 117.332031-117.332031 117.332031 52.628906 117.332031 117.332031-52.628906 117.332031-117.332031 117.332031zm0-202.664062c-47.0625 0-85.332031 38.269531-85.332031 85.332031s38.269531 85.332031 85.332031 85.332031 85.332031-38.269531 85.332031-85.332031-38.269531-85.332031-85.332031-85.332031zm0 0" fill="#000000" style="fill: rgb(181, 181, 181);"></path><path d="m448 405.832031h-389.332031c-32.363281 0-58.667969-26.300781-58.667969-58.664062v-224c0-32.363281 26.304688-58.667969 58.667969-58.667969h80.789062l15.785157-31.574219c10.003906-19.988281 30.101562-32.425781 52.460937-32.425781h94.527344c23.765625 0 45.011719 14.1875 54.164062 36.097656l11.605469 27.902344h85.332031c32.363281 0 58.667969 26.304688 58.667969 58.667969v224c0 34.578125-33.726562 58.664062-64 58.664062zm-389.332031-309.332031c-14.699219 0-26.667969 11.96875-26.667969 26.667969v224c0 14.699219 11.96875 26.664062 26.667969 26.664062h389.332031c16.148438 0 32-13.203125 32-26.664062v-224c0-14.699219-11.96875-26.667969-26.667969-26.667969h-96c-6.460937 0-12.285156-3.882812-14.761719-9.835938l-15.742187-37.738281c-4.160156-9.984375-13.804687-16.425781-24.621094-16.425781h-94.503906c-10.15625 0-19.308594 5.652344-23.851563 14.742188l-20.203124 40.40625c-2.710938 5.417968-8.257813 8.851562-14.316407 8.851562zm0 0" fill="#000000" style="fill: rgb(181, 181, 181);"></path><path d="m426.644531 171.1875c-11.753906 0-21.332031-9.578125-21.332031-21.332031 0-11.753907 9.578125-21.335938 21.332031-21.335938 11.753907 0 21.335938 9.582031 21.335938 21.335938 0 11.753906-9.582031 21.332031-21.335938 21.332031zm0-32c-5.886719 0-10.664062 4.777344-10.664062 10.667969 0 5.886719 4.777343 10.664062 10.664062 10.664062 5.890625 0 10.667969-4.777343 10.667969-10.664062 0-5.890625-4.777344-10.667969-10.667969-10.667969zm0 0" fill="#000000" style="fill: rgb(181, 181, 181);"></path></svg>