<!-- icon666.com - MILLIONS vector ICONS FREE --><svg enable-background="new 0 0 97.2 75.6" viewBox="0 0 97.2 75.6" xmlns="http://www.w3.org/2000/svg"><g id="Layer_3" display="none"><g display="inline"><g><g><g><path d="m-10.2-21.5h120v120h-120z" fill="#cdd5d7"></path></g></g></g></g></g><g id="Layer_4"><g><path d="m12.4 0h84.7v63.1h-84.7z" fill="#f8c44f"></path><g><path d="m2 10.4h84.7v63.1h-84.7z" fill="#fff"></path><path d="m88.7 75.6h-88.7v-67.2h88.7zm-84.7-4h80.7v-59.2h-80.7z" fill="#282d33"></path></g><path d="m9.4 17.8v28.3l12.9-17.2 12.7 16.9 8.2-10.9 10.5 13.9 2.3 3.1h23.3v-34.1z" fill="#5eb4e7"></path><path d="m68.9 30.8c0 3.3-2.7 6-6 6s-6-2.7-6-6 2.7-6 6-6 6 2.7 6 6z" fill="#fff"></path></g></g></svg>