<!-- icon666.com - MILLIONS vector ICONS FREE --><svg viewBox="0 0 32 32" xmlns="http://www.w3.org/2000/svg"><g id="Layer_2" data-name="Layer 2"><path d="m16 2a14 14 0 1 0 14 14 14.015 14.015 0 0 0 -14-14zm0 26a12 12 0 1 1 12-12 12.013 12.013 0 0 1 -12 12z" fill="#000000" style="fill: rgb(181, 181, 181);"></path><path d="m21.465 18.131a1.015 1.015 0 0 0 -1.347.4c-.035.058-.879 1.469-4.118 1.469s-4.083-1.411-4.105-1.447a1 1 0 0 0 -1.79.894c.131.261 1.407 2.553 5.895 2.553s5.764-2.292 5.9-2.553a.989.989 0 0 0 -.435-1.316z" fill="#000000" style="fill: rgb(181, 181, 181);"></path><circle cx="12.5" cy="12.5" r="1.5" fill="#000000" style="fill: rgb(181, 181, 181);"></circle><circle cx="19.5" cy="12.5" r="1.5" fill="#000000" style="fill: rgb(181, 181, 181);"></circle></g></svg>