<!-- icon666.com - MILLIONS vector ICONS FREE --><svg id="Layer_1" viewBox="0 0 100 100" xmlns="http://www.w3.org/2000/svg"><g><ellipse cx="50.002" cy="30.718" fill="#fbc7a2" rx="24.151" ry="24.233"></ellipse><ellipse cx="77.214" cy="77.159" fill="#8bceb5" rx="16.302" ry="16.357"></ellipse><path d="m60.912 77.159c0-9.033 7.299-16.357 16.302-16.357 2.196 0 4.29.438 6.202 1.229-4.545-4.854-11.097-8.895-20.537-10.815-3.728 2.363-8.141 3.736-12.877 3.736s-9.149-1.373-12.878-3.736c-34.484 7.016-30.495 42.301-30.495 42.301h70.584c-9.002 0-16.301-7.325-16.301-16.358z" fill="#ade1f7"></path><path d="m77.214 93.517h16.16s.563-4.988-.565-11.587c-2.036 6.707-8.246 11.587-15.595 11.587z" fill="#91cbdf"></path><g><path d="m50.002 56.435c-14.135 0-25.635-11.536-25.635-25.717s11.5-25.718 25.635-25.718 25.634 11.537 25.634 25.718-11.499 25.717-25.634 25.717zm0-48.468c-12.5 0-22.668 10.206-22.668 22.751 0 12.544 10.168 22.75 22.668 22.75 12.499 0 22.667-10.206 22.667-22.75 0-12.545-10.169-22.751-22.667-22.751z" fill="#404041"></path></g><g><path d="m77.214 95c-9.806 0-17.785-8.003-17.785-17.841 0-9.837 7.979-17.841 17.785-17.841s17.784 8.004 17.784 17.841c0 9.838-7.978 17.841-17.784 17.841zm0-32.715c-8.17 0-14.818 6.673-14.818 14.874s6.647 14.874 14.818 14.874 14.817-6.673 14.817-14.874-6.647-14.874-14.817-14.874z" fill="#404041"></path></g><path d="m76.448 56.377c-11.094.405-19.965 9.552-19.965 20.782 0 6.64 3.104 12.549 7.932 16.357h12.799c-9.003 0-16.302-7.324-16.302-16.357s7.299-16.357 16.302-16.357c2.196 0 4.29.438 6.202 1.229-1.936-2.067-4.237-3.983-6.968-5.654z" fill="#91cbdf"></path><path d="m31.724 52.643c4.875 3.766 11.267 7.083 18.278 7.083 7.01 0 13.402-3.317 18.277-7.083-1.688-.555-3.481-1.037-5.4-1.428-3.728 2.363-8.141 3.736-12.876 3.736-4.736 0-9.149-1.373-12.878-3.736-1.919.39-3.712.873-5.401 1.428z" fill="#91cbdf"></path><g><path d="m77.214 95h-70.585c-.755 0-1.39-.566-1.475-1.316-.042-.374-.996-9.267 2.387-19.166 3.148-9.216 10.785-20.991 29.288-24.756.375-.075.765-.005 1.089.2 3.618 2.294 7.796 3.506 12.083 3.506s8.464-1.212 12.083-3.506c.323-.205.714-.276 1.089-.2 8.84 1.799 16.015 5.585 21.324 11.255.477.51.534 1.283.137 1.857-.396.574-1.142.795-1.787.527-1.792-.74-3.688-1.116-5.635-1.116-8.17 0-14.818 6.673-14.818 14.874s6.647 14.874 14.818 14.874c.819 0 1.483.664 1.483 1.483s-.662 1.484-1.481 1.484zm-69.201-2.967h59.389c-4.801-3.198-7.973-8.671-7.973-14.874 0-9.837 7.979-17.841 17.785-17.841.328 0 .653.009.978.026-4.15-3.097-9.186-5.294-15.037-6.557-3.972 2.388-8.506 3.646-13.152 3.646s-9.181-1.259-13.153-3.646c-13.43 2.893-22.345 10.523-26.5 22.688-2.437 7.131-2.461 13.811-2.337 16.558z" fill="#404041"></path></g><g><path d="m93.374 95h-16.16c-.819 0-1.483-.664-1.483-1.483s.665-1.483 1.483-1.483c6.566 0 12.263-4.233 14.176-10.534.2-.658.828-1.091 1.512-1.049.687.043 1.253.552 1.37 1.229 1.151 6.729.601 11.791.577 12.004-.086.749-.721 1.316-1.475 1.316zm-6.293-2.967h4.908c.048-1.078.075-2.76-.057-4.83-1.298 1.927-2.95 3.563-4.851 4.83z" fill="#404041"></path></g><g><path d="m76.906 83.959c-.386 0-.758-.151-1.036-.422l-6.838-6.676 2.073-2.124 5.728 5.592 8.447-9.473 2.214 1.975-9.479 10.632c-.27.302-.651.481-1.056.495-.019.001-.036.001-.053.001z" fill="#539880"></path></g></g></svg>